<?xml version="1.0" encoding="UTF-8"?>
<!DOCTYPE svg PUBLIC "-//W3C//DTD SVG 1.1//EN" "http://www.w3.org/Graphics/SVG/1.1/DTD/svg11.dtd">
<!-- Creator: CorelDRAW 2018 (64-Bit) -->
<svg xmlns="http://www.w3.org/2000/svg" xml:space="preserve" width="195px" height="34px" version="1.1" style="shape-rendering:geometricPrecision; text-rendering:geometricPrecision; image-rendering:optimizeQuality; fill-rule:evenodd; clip-rule:evenodd"
viewBox="0 0 195 33.93"
 xmlns:xlink="http://www.w3.org/1999/xlink">
 <defs>
  <style type="text/css">
   <![CDATA[
    .fil2 {fill:none;fill-rule:nonzero}
    .fil3 {fill:#54B0BF}
    .fil1 {fill:#54B0BF;fill-rule:nonzero}
    .fil0 {fill:#999999;fill-rule:nonzero}
   ]]>
  </style>
 </defs>
 <g id="РЎР_x00bb_РѕР_x2116__x0020_1">
  <metadata id="CorelCorpID_0Corel-Layer"/>
  <path class="fil0" d="M41.7 12.72l0 -7.46 7.12 0 0 7.46 -2.57 0 0 -5.86 -1.98 0 0 5.86 -2.57 0zm11.31 -2.71l0 2.71 -2.69 0 0 -7.46 3.68 0c0.92,0 1.61,0.09 2.09,0.28 0.48,0.18 0.86,0.46 1.14,0.83 0.28,0.38 0.42,0.8 0.42,1.26 0,0.71 -0.29,1.29 -0.86,1.73 -0.57,0.43 -1.33,0.65 -2.29,0.65l-1.49 0zm-0.04 -1.6l0.88 0c0.77,0 1.16,-0.25 1.16,-0.75 0,-0.47 -0.36,-0.71 -1.07,-0.71l-0.97 0 0 1.46zm9.38 4.42c-1.21,0 -2.2,-0.35 -2.96,-1.05 -0.77,-0.69 -1.15,-1.62 -1.15,-2.78 0,-1.12 0.37,-2.04 1.1,-2.76 0.73,-0.73 1.74,-1.09 3.04,-1.09 1.2,0 2.18,0.34 2.93,1.03 0.76,0.68 1.14,1.59 1.14,2.73 0,1.19 -0.38,2.13 -1.15,2.85 -0.76,0.71 -1.74,1.07 -2.95,1.07zm-0.01 -1.69c0.45,0 0.77,-0.17 0.97,-0.51 0.19,-0.33 0.29,-0.95 0.29,-1.85 0,-1.29 -0.4,-1.94 -1.21,-1.94 -0.87,0 -1.31,0.74 -1.31,2.22 0,1.39 0.42,2.08 1.26,2.08zm14.59 -5.88l0 7.46 -2.46 0 0 -5.33 -1.6 5.33 -1.68 0 -1.65 -5.33 0 5.33 -1.98 0 0 -7.46 3.45 0 1.25 3.96 1.19 -3.96 3.48 0zm9.62 7.46l0 -7.46 2.57 0 0 7.46 -2.57 0zm-8.13 0l0 -7.46 2.58 0 0 2.63 1.51 0c0.83,0 1.46,0.08 1.88,0.25 0.42,0.16 0.75,0.43 0.99,0.79 0.25,0.36 0.37,0.79 0.37,1.29 0,0.69 -0.26,1.28 -0.78,1.77 -0.52,0.48 -1.34,0.73 -2.46,0.73l-4.09 0zm2.58 -1.66l1.19 0c0.33,0 0.55,-0.06 0.68,-0.18 0.13,-0.13 0.19,-0.34 0.19,-0.64 0,-0.51 -0.26,-0.77 -0.79,-0.77l-1.27 0 0 1.59zm9.62 1.66l0 -7.46 2.57 0 0 5.7 1.84 0 0 -5.7 2.57 0 0 5.7 1.83 0 0 -5.7 2.58 0 0 7.46 -11.39 0zm13.94 0l-2.12 0 2.73 -7.46 2.81 0 2.68 7.46 -2.61 0 -1.73 -5.31 -1.76 5.31zm13.07 -1.78l0 1.78 -6.49 0 0 -7.46 6.49 0 0 1.72 -3.89 0 0 1.09 3.14 0 0 1.65 -3.14 0 0 1.22 3.89 0zm8.34 -5.68l0 7.46 -2.65 0 0 -2.9 -2 0 0 2.9 -2.65 0 0 -7.46 2.65 0 0 2.75 2 0 0 -2.75 2.65 0zm8.8 0l0 7.46 -2.65 0 0 -2.9 -2 0 0 2.9 -2.65 0 0 -7.46 2.65 0 0 2.75 2 0 0 -2.75 2.65 0zm9.63 7.46l0 -7.46 2.57 0 0 7.46 -2.57 0zm-8.13 0l0 -7.46 2.58 0 0 2.63 1.51 0c0.83,0 1.46,0.08 1.88,0.25 0.42,0.16 0.75,0.43 1,0.79 0.24,0.36 0.36,0.79 0.36,1.29 0,0.69 -0.26,1.28 -0.78,1.77 -0.51,0.48 -1.34,0.73 -2.46,0.73l-4.09 0zm2.58 -1.66l1.19 0c0.33,0 0.56,-0.06 0.68,-0.18 0.13,-0.13 0.19,-0.34 0.19,-0.64 0,-0.51 -0.26,-0.77 -0.79,-0.77l-1.27 0 0 1.59zm16.11 -0.12l0 1.78 -6.49 0 0 -7.46 6.49 0 0 1.72 -3.89 0 0 1.09 3.14 0 0 1.65 -3.14 0 0 1.22 3.89 0zm4.27 1.78l0 -7.46 7.12 0 0 7.46 -2.57 0 0 -5.86 -1.98 0 0 5.86 -2.57 0zm12.34 0.11c-1.21,0 -2.2,-0.35 -2.96,-1.05 -0.77,-0.69 -1.15,-1.62 -1.15,-2.78 0,-1.12 0.37,-2.04 1.1,-2.76 0.73,-0.73 1.74,-1.09 3.04,-1.09 1.2,0 2.18,0.34 2.93,1.03 0.76,0.68 1.14,1.59 1.14,2.73 0,1.19 -0.38,2.13 -1.15,2.85 -0.76,0.71 -1.74,1.07 -2.95,1.07zm-0.01 -1.69c0.45,0 0.77,-0.17 0.97,-0.51 0.2,-0.33 0.29,-0.95 0.29,-1.85 0,-1.29 -0.4,-1.94 -1.21,-1.94 -0.87,0 -1.31,0.74 -1.31,2.22 0,1.39 0.42,2.08 1.26,2.08zm6.15 1.58l-2.11 0 2.73 -7.46 2.81 0 2.67 7.46 -2.61 0 -1.72 -5.31 -1.77 5.31zm14.72 0l0 -7.46 2.57 0 0 7.46 -2.57 0zm-8.13 0l0 -7.46 2.57 0 0 2.63 1.51 0c0.84,0 1.47,0.08 1.89,0.25 0.42,0.16 0.75,0.43 0.99,0.79 0.24,0.36 0.37,0.79 0.37,1.29 0,0.69 -0.26,1.28 -0.78,1.77 -0.52,0.48 -1.34,0.73 -2.47,0.73l-4.08 0zm2.57 -1.66l1.19 0c0.33,0 0.56,-0.06 0.69,-0.18 0.12,-0.13 0.19,-0.34 0.19,-0.64 0,-0.51 -0.26,-0.77 -0.79,-0.77l-1.28 0 0 1.59z"/>
  <g id="_2993475665664">
   <path class="fil1" d="M16 19.31c0.35,0.16 0.74,0.25 1.15,0.25 0.37,0 0.72,-0.07 1.04,-0.2l-0.98 0.96 4.06 4c-1.22,0.66 -2.63,1.03 -4.12,1.03 -1.51,0 -2.93,-0.38 -4.16,-1.06l4.03 -3.97 -1.02 -1.01z"/>
   <path class="fil1" d="M14.7 15.77c-0.16,0.34 -0.25,0.73 -0.25,1.13 0,0.4 0.09,0.79 0.26,1.14l-1.07 -1.06 -4.03 3.97c-0.67,-1.21 -1.05,-2.59 -1.05,-4.05l0 0c0,-1.47 0.38,-2.85 1.05,-4.05l4.03 3.96 1.06 -1.04z"/>
   <path class="fil1" d="M18.18 14.44c-0.31,-0.13 -0.66,-0.2 -1.03,-0.2 -0.41,0 -0.79,0.09 -1.14,0.25l1.02 -1.01 -4.04 -3.97c1.23,-0.68 2.65,-1.06 4.16,-1.06 1.49,0 2.89,0.37 4.12,1.03l-4.06 3.99 0.97 0.97z"/>
   <path class="fil1" d="M19.86 16.9c0,-0.36 -0.07,-0.7 -0.2,-1.02l0.93 0.93 4.08 -4.01c0.68,1.21 1.08,2.61 1.08,4.1 0,1.48 -0.39,2.88 -1.08,4.09l-4.07 -4 -0.95 0.93c0.13,-0.31 0.21,-0.66 0.21,-1.02z"/>
   <path class="fil2" d="M3.3 16.9c0,-7.52 6.21,-13.63 13.85,-13.63 7.64,0 13.86,6.11 13.86,13.63 0,7.51 -6.22,13.62 -13.86,13.62 -7.64,0 -13.85,-6.11 -13.85,-13.62m31.01 0c0,-9.32 -7.68,-16.87 -17.16,-16.87 -9.47,0 -17.15,7.55 -17.15,16.87 0,9.32 7.68,16.87 17.15,16.87m0 0l17.16 0 0 -16.87"/>
   <path class="fil3" d="M0 16.9c0,-9.32 7.68,-16.87 17.15,-16.87 9.48,0 17.16,7.55 17.16,16.87l0 16.87 -17.16 0c-9.47,0 -17.15,-7.55 -17.15,-16.87zm17.15 -13.63c-7.64,0 -13.85,6.11 -13.85,13.63 0,7.51 6.21,13.62 13.85,13.62 7.64,0 13.86,-6.11 13.86,-13.62 0,-7.52 -6.22,-13.63 -13.86,-13.63z"/>
   <path class="fil3" d="M4.99 16.9c0,-6.6 5.46,-11.96 12.16,-11.96 6.71,0 12.16,5.36 12.16,11.96 0,6.59 -5.45,11.96 -12.16,11.96 -6.7,0 -12.16,-5.37 -12.16,-11.96zm3.64 -5.02c-0.89,1.47 -1.41,3.19 -1.41,5.02 0,1.83 0.52,3.54 1.41,5.01l-1.07 1.05 3.39 3.33 1.06 -1.04c1.5,0.9 3.26,1.42 5.14,1.42 1.87,0 3.61,-0.51 5.1,-1.39l1.04 1.02 3.38 -3.33 -1.02 -1.01c0.91,-1.48 1.43,-3.21 1.43,-5.06 0,-1.85 -0.52,-3.59 -1.44,-5.06l1.03 -1.01 -3.39 -3.33 -1.03 1.02c-1.49,-0.88 -3.24,-1.39 -5.1,-1.39 -1.88,0 -3.64,0.52 -5.14,1.41l-1.06 -1.04 -3.38 3.34 1.06 1.04z"/>
  </g>
  <path class="fil1" d="M54.87 33.76l0 -17.53 -13.21 0 0 17.53 4.31 0 0 -13.68 4.59 0 0 13.68 4.31 0zm16.49 -11.9c0,-3.26 -2.52,-5.63 -5.99,-5.63l-6.95 0 0 17.53 4.31 0 0 -6.26 2.64 0c3.5,0 5.99,-2.37 5.99,-5.64zm-4.32 0c0,1.01 -0.78,1.77 -1.87,1.77l-2.44 0 0 -3.53 2.44 0c1.09,0 1.87,0.76 1.87,1.76zm19.62 1.57c0,-2.54 -0.54,-4.12 -1.77,-5.4 -1.29,-1.33 -2.91,-1.97 -4.93,-1.97 -2,0 -3.63,0.64 -4.88,1.97 -1.38,1.43 -1.78,2.91 -1.78,6.34l0 1.28c0,2.14 0.03,4.46 1.78,6.28 1.28,1.33 2.88,1.97 4.93,1.97 1.99,0 3.62,-0.64 4.88,-1.97 1.7,-1.77 1.77,-3.97 1.77,-6.23l0 -2.27zm-4.31 2.02c0,2.24 -0.17,3.23 -0.64,3.82 -0.4,0.49 -1.04,0.79 -1.73,0.79 -0.69,0 -1.33,-0.3 -1.72,-0.79 -0.47,-0.59 -0.64,-1.58 -0.64,-3.82l0 -1.21c0,-1.65 0.17,-2.95 0.64,-3.57 0.39,-0.49 1.01,-0.76 1.72,-0.76 0.72,0 1.33,0.27 1.73,0.76 0.47,0.62 0.64,1.92 0.64,3.57l0 1.21zm18.19 -4.61c2.24,0.17 3.2,1.06 3.2,3.67 0,2.47 -0.96,3.48 -3.2,3.7l0 -7.37zm-4.17 7.37c-2.24,-0.22 -3.2,-1.23 -3.2,-3.7 0,-2.61 0.96,-3.5 3.2,-3.67l0 7.37zm4.24 5.69l0 -2.09c5.37,-0.22 7.44,-3.08 7.44,-7.49 0,-4.37 -2.46,-6.95 -7.44,-7.17l0 -1.83 -4.31 0 0 1.83c-4.98,0.22 -7.45,2.8 -7.45,7.17 0,4.41 2.07,7.27 7.45,7.49l0 2.09 4.31 0zm23.9 -0.14l0 -17.53 -3.77 0 -5.62 9.55 0 -9.55 -4.31 0 0 17.53 3.77 0 5.62 -9.55 0 9.55 4.31 0zm7.86 0l0 -9.18 5.18 9.18 5.08 0 -5.75 -9.38 5.18 -8.15 -4.95 0 -4.74 8.3 0 -8.3 -4.31 0 0 17.53 4.31 0zm24.03 -5.57l-4.38 0c-0.28,0.98 -0.82,1.87 -2.25,1.87 -0.79,0 -1.38,-0.32 -1.7,-0.74 -0.39,-0.52 -0.66,-1.13 -0.66,-4.34 0,-3.2 0.27,-3.82 0.66,-4.34 0.32,-0.41 0.91,-0.73 1.7,-0.73 1.43,0 1.97,0.88 2.25,1.87l4.38 0c-0.64,-3.87 -3.32,-5.72 -6.65,-5.72 -2.05,0 -3.6,0.69 -4.88,1.97 -1.85,1.85 -1.78,4.32 -1.78,6.95 0,2.64 -0.07,5.1 1.78,6.95 1.28,1.28 2.83,1.97 4.88,1.97 3.33,0 6.01,-1.85 6.65,-5.71z"/>
  <g id="_2993475665312">
   <polygon class="fil1" points="195,33.89 195,16.5 190.72,16.5 190.72,23.17 186.17,23.17 186.17,16.5 181.89,16.5 181.89,33.89 186.17,33.89 186.17,26.99 190.72,26.99 190.72,33.89 "/>
   <polygon class="fil1" points="178.37,33.89 178.37,16.5 174.09,16.5 174.09,23.17 169.54,23.17 169.54,16.5 165.26,16.5 165.26,33.89 169.54,33.89 169.54,26.99 174.09,26.99 174.09,33.89 "/>
  </g>
 </g>
</svg>
